<svg xmlns="http://www.w3.org/2000/svg" width="574.671" height="129.267" viewBox="0 0 574.671 129.267">
  <g id="Grupo_20" data-name="Grupo 20" transform="translate(-70.418 -99.254)">
    <g id="Grupo_9" data-name="Grupo 9" transform="translate(366.958 105.708)">
      <rect id="Rectángulo_12" data-name="Rectángulo 12" width="9.568" height="65.757" transform="translate(0 1.105)" fill="#6d6f71"/>
      <path id="Trazado_82" data-name="Trazado 82" d="M625.633,151.383q0,11.959-8.044,19.451t-20.647,7.494q-12.5,0-20.6-7.449t-8.092-19.4V111.1h9.568v40.188q0,8.09,5.283,13.013c3.533,3.283,8.134,4.922,13.842,4.922q8.454,0,13.8-4.874,5.33-4.876,5.33-12.876V111.1h9.561Z" transform="translate(-547.213 -109.998)" fill="#6d6f71"/>
      <path id="Trazado_83" data-name="Trazado 83" d="M733.317,171.177a42.772,42.772,0,0,1-11.221,5.056,48.287,48.287,0,0,1-12.6,1.469,34.693,34.693,0,0,1-25.063-10.022,33.386,33.386,0,0,1-.043-48.282A34.645,34.645,0,0,1,709.5,109.371a43.165,43.165,0,0,1,12.971,1.928,66.629,66.629,0,0,1,10.846,4.781v10.582a51.893,51.893,0,0,0-10.022-5.887,38.923,38.923,0,0,0-13.794-2.113,25.835,25.835,0,0,0-18.487,7.268,24.028,24.028,0,0,0,.05,35.176,25.8,25.8,0,0,0,18.437,7.31q9.929,0,15.449-3.037,1.838-1.013,8.368-5.883Z" transform="translate(-585.536 -109.371)" fill="#6d6f71"/>
      <path id="Trazado_84" data-name="Trazado 84" d="M829.543,156.635a20.247,20.247,0,0,1-20.231,20.225H782.82V111.1h20.425a17.481,17.481,0,0,1,12.41,5.059,16.15,16.15,0,0,1,5.333,12.154,13.025,13.025,0,0,1-1.334,5.652,8.82,8.82,0,0,1-3.36,4,19.8,19.8,0,0,1,9.566,7.214,19.113,19.113,0,0,1,3.683,11.449m-17.566-28.424a7.632,7.632,0,0,0-2.59-5.8,8.8,8.8,0,0,0-6.187-2.386H792.387v16.458H803.2a8.767,8.767,0,0,0,6.144-2.438,7.694,7.694,0,0,0,2.632-5.836m8.553,28.419a10.614,10.614,0,0,0-3.258-7.8,10.816,10.816,0,0,0-7.927-3.236H792.387v22.162h16.958a11.079,11.079,0,0,0,11.185-11.122" transform="translate(-624.905 -109.998)" fill="#6d6f71"/>
      <path id="Trazado_85" data-name="Trazado 85" d="M929.081,171.177a42.846,42.846,0,0,1-11.223,5.056,48.256,48.256,0,0,1-12.6,1.469A34.687,34.687,0,0,1,880.2,167.68a33.4,33.4,0,0,1-.047-48.282,34.66,34.66,0,0,1,25.11-10.027,43.122,43.122,0,0,1,12.967,1.928,66.6,66.6,0,0,1,10.852,4.781v10.582a51.843,51.843,0,0,0-10.026-5.887,38.911,38.911,0,0,0-13.793-2.113,25.823,25.823,0,0,0-18.487,7.268,24.025,24.025,0,0,0,.047,35.176,25.8,25.8,0,0,0,18.44,7.31q9.929,0,15.452-3.037,1.841-1.013,8.366-5.883Z" transform="translate(-656.419 -109.371)" fill="#6d6f71"/>
    </g>
    <g id="Grupo_18" data-name="Grupo 18" transform="translate(367.198 183.489)">
      <g id="Grupo_14" data-name="Grupo 14" transform="translate(45.054 18.158)">
        <g id="Grupo_11" data-name="Grupo 11">
          <path id="Trazado_86" data-name="Trazado 86" d="M613.4,270.667a3.257,3.257,0,0,0-1.579-1.186l-.2-.073.187-.113a1.4,1.4,0,0,0,.526-.637,2.057,2.057,0,0,0,.221-.915,2.614,2.614,0,0,0-.875-1.986,2.861,2.861,0,0,0-2.037-.834h-3.362v10.961h4.393a3.312,3.312,0,0,0,2.73-5.217Zm-5.7-4.432h1.936a1.6,1.6,0,0,1,1.121.431,1.431,1.431,0,0,1-.008,2.125,1.594,1.594,0,0,1-1.113.44H607.7Zm4.4,7.728a1.952,1.952,0,0,1-1.419.579H607.7v-3.968h2.976a1.956,1.956,0,0,1,1.419.579,1.9,1.9,0,0,1,.582,1.4A1.926,1.926,0,0,1,612.091,273.964Z" transform="translate(-606.275 -261.632)" fill="#6d6f71"/>
          <rect id="Rectángulo_13" data-name="Rectángulo 13" width="1.422" height="10.962" transform="translate(8.786 3.29)" fill="#6d6f71"/>
          <path id="Trazado_87" data-name="Trazado 87" d="M633.824,266.378a5.643,5.643,0,1,0,1.649,4A5.45,5.45,0,0,0,633.824,266.378Zm-.942,7.025a4.3,4.3,0,1,1,1.261-3.029A4.127,4.127,0,0,1,632.882,273.4Z" transform="translate(-612.777 -261.562)" fill="#6d6f71"/>
          <path id="Trazado_88" data-name="Trazado 88" d="M654.663,275.884V264.923h-1.424l-4.221,5.292-4.154-5.292h-1.47v10.962h1.422v-8.793l4.219,5.137,4.206-5.283v8.939Z" transform="translate(-619.715 -261.632)" fill="#6d6f71"/>
          <g id="Grupo_10" data-name="Grupo 10" transform="translate(36.306)">
            <path id="Trazado_89" data-name="Trazado 89" d="M670.283,261.321l.125-1.441-1.443-.116-1.426,2.524Z" transform="translate(-664.763 -259.765)" fill="#6d6f71"/>
            <path id="Trazado_90" data-name="Trazado 90" d="M668.559,270.559v-1.341h-3.951v-2.982h5.434v-1.313h-6.854v10.962h7.121v-1.342h-5.7v-3.984Z" transform="translate(-663.188 -261.632)" fill="#6d6f71"/>
          </g>
          <path id="Trazado_91" data-name="Trazado 91" d="M683.927,266.528a5.111,5.111,0,0,0-3.774-1.605h-3.892v10.961h3.892a5.093,5.093,0,0,0,3.774-1.619,5.393,5.393,0,0,0,1.571-3.886A5.307,5.307,0,0,0,683.927,266.528Zm-.89,6.8a3.939,3.939,0,0,1-2.884,1.217h-2.475V266.2h2.475a3.9,3.9,0,0,1,2.884,1.234,4.213,4.213,0,0,1,0,5.888Z" transform="translate(-631.616 -261.632)" fill="#6d6f71"/>
          <rect id="Rectángulo_14" data-name="Rectángulo 14" width="1.422" height="10.962" transform="translate(55.115 3.29)" fill="#6d6f71"/>
          <path id="Trazado_92" data-name="Trazado 92" d="M706.614,273.24c-.627.465-1.065.771-1.268.886a5.663,5.663,0,0,1-2.67.528,4.513,4.513,0,0,1-3.2-1.268,4.178,4.178,0,0,1-.008-6.12A4.5,4.5,0,0,1,702.677,266a6.632,6.632,0,0,1,2.371.367,7.956,7.956,0,0,1,1.567.9v-1.541a10.961,10.961,0,0,0-1.768-.773,7.2,7.2,0,0,0-2.17-.325,5.82,5.82,0,0,0-4.2,1.672,5.573,5.573,0,0,0,.01,8.051,5.815,5.815,0,0,0,4.186,1.674,8.245,8.245,0,0,0,2.107-.245,7.2,7.2,0,0,0,1.83-.819Z" transform="translate(-639.04 -261.527)" fill="#6d6f71"/>
          <path id="Trazado_93" data-name="Trazado 93" d="M720.2,273.215l.024.064.95,2.6,1.446,0-4-10.961h-1.372l-4.013,10.961,1.43,0,.976-2.665Zm-4.02-1.483,1.753-4.823,1.81,4.957h-3.612Z" transform="translate(-645.001 -261.632)" fill="#6d6f71"/>
          <path id="Trazado_94" data-name="Trazado 94" d="M735.042,270.519a3.545,3.545,0,0,0-1.72-1.266l-1.655-.558a1.574,1.574,0,0,1-.72-.511,1.292,1.292,0,0,1-.273-.835,1.23,1.23,0,0,1,.47-1.025,1.912,1.912,0,0,1,2.034-.125,1.434,1.434,0,0,1,.529.55l1.2-.821a2.993,2.993,0,0,0-1.056-1.043,3.31,3.31,0,0,0-3.749.409,2.664,2.664,0,0,0-.876,2.055,2.635,2.635,0,0,0,.535,1.641,3.207,3.207,0,0,0,1.431,1.057c.276.118.542.223.847.328.242.085.542.186.9.313a2.064,2.064,0,0,1,.922.749,1.965,1.965,0,0,1,.349,1.143,1.767,1.767,0,0,1-.63,1.4,2.313,2.313,0,0,1-1.529.52,2.184,2.184,0,0,1-1.5-.562,1.829,1.829,0,0,1-.626-1.238l-1.316.9a3.39,3.39,0,0,0,1.278,1.716,3.547,3.547,0,0,0,2.177.7,3.7,3.7,0,0,0,2.6-.982,3.231,3.231,0,0,0,1.049-2.459A3.424,3.424,0,0,0,735.042,270.519Z" transform="translate(-650.567 -261.473)" fill="#6d6f71"/>
        </g>
        <g id="Grupo_13" data-name="Grupo 13" transform="translate(92.715 0.051)">
          <path id="Trazado_95" data-name="Trazado 95" d="M759.285,266.606a5.1,5.1,0,0,0-3.773-1.6h-3.9v10.955h3.9a5.1,5.1,0,0,0,3.773-1.614,5.4,5.4,0,0,0,1.571-3.888A5.317,5.317,0,0,0,759.285,266.606Zm-.89,6.8a3.937,3.937,0,0,1-2.883,1.219h-2.475v-8.337h2.475a3.91,3.91,0,0,1,2.883,1.232,4.1,4.1,0,0,1,1.2,2.944A4.053,4.053,0,0,1,758.395,273.4Z" transform="translate(-751.615 -261.713)" fill="#6d6f71"/>
          <path id="Trazado_96" data-name="Trazado 96" d="M773.4,270.655v-1.346h-3.951v-3h5.434v-1.308h-6.854v10.955h7.119V274.62h-5.7v-3.964Z" transform="translate(-757.56 -261.713)" fill="#6d6f71"/>
          <path id="Trazado_97" data-name="Trazado 97" d="M796.381,273.313a13.938,13.938,0,0,1-1.269.887,5.631,5.631,0,0,1-2.672.528,4.486,4.486,0,0,1-3.2-1.27,4.177,4.177,0,0,1-.008-6.117,4.492,4.492,0,0,1,3.207-1.259,6.563,6.563,0,0,1,2.378.366,8.219,8.219,0,0,1,1.563.9v-1.541a10.744,10.744,0,0,0-1.772-.774,7.125,7.125,0,0,0-2.169-.325,5.8,5.8,0,0,0-4.19,1.675,5.567,5.567,0,0,0,0,8.051,5.843,5.843,0,0,0,4.187,1.669,8.163,8.163,0,0,0,2.113-.244,7.127,7.127,0,0,0,1.828-.817Z" transform="translate(-764.257 -261.605)" fill="#6d6f71"/>
          <g id="Grupo_12" data-name="Grupo 12" transform="translate(33.028)">
            <path id="Trazado_98" data-name="Trazado 98" d="M812.983,266.453a5.647,5.647,0,1,0,1.647,4A5.439,5.439,0,0,0,812.983,266.453Zm-.944,7.028a4.29,4.29,0,1,1,1.266-3.032A4.165,4.165,0,0,1,812.039,273.481Z" transform="translate(-803.389 -261.64)" fill="#6d6f71"/>
            <path id="Trazado_99" data-name="Trazado 99" d="M812.64,261.4l.122-1.443-1.436-.111-1.428,2.519Z" transform="translate(-805.746 -259.844)" fill="#6d6f71"/>
          </g>
          <path id="Trazado_100" data-name="Trazado 100" d="M825.6,271.191l3.2,4.763,1.756.007-3.407-5.049.109-.047a3.037,3.037,0,0,0,1.812-2.795,2.909,2.909,0,0,0-.908-2.175,3,3,0,0,0-2.177-.889h-3.421v10.955h1.417v-4.807l1.59-.01Zm-1.622-4.783h2a1.622,1.622,0,0,1,1.2.5,1.641,1.641,0,0,1,.5,1.212,1.7,1.7,0,0,1-1.7,1.691h-2Z" transform="translate(-777.301 -261.713)" fill="#6d6f71"/>
          <path id="Trazado_101" data-name="Trazado 101" d="M845.127,266.606a5.12,5.12,0,0,0-3.776-1.6h-3.9v10.955h3.9a5.121,5.121,0,0,0,3.776-1.614,5.41,5.41,0,0,0,1.567-3.888A5.323,5.323,0,0,0,845.127,266.606Zm-.894,6.8a3.923,3.923,0,0,1-2.883,1.219h-2.474v-8.337h2.474a3.907,3.907,0,0,1,2.883,1.232,4.217,4.217,0,0,1,0,5.886Z" transform="translate(-782.696 -261.713)" fill="#6d6f71"/>
          <path id="Trazado_102" data-name="Trazado 102" d="M863.223,266.451a5.651,5.651,0,1,0,1.646,4A5.457,5.457,0,0,0,863.223,266.451Zm-.945,7.031a4.287,4.287,0,1,1,1.266-3.032A4.124,4.124,0,0,1,862.278,273.481Z" transform="translate(-788.554 -261.64)" fill="#6d6f71"/>
          <path id="Trazado_103" data-name="Trazado 103" d="M879.909,270.747a3.225,3.225,0,0,0-1.572-1.19l-.207-.073.188-.11a1.384,1.384,0,0,0,.532-.634,2.073,2.073,0,0,0,.213-.919,2.622,2.622,0,0,0-.871-1.984,2.857,2.857,0,0,0-2.035-.831h-3.364v10.955h4.395a3.223,3.223,0,0,0,2.352-.976,3.171,3.171,0,0,0,.975-2.353A3.138,3.138,0,0,0,879.909,270.747Zm-5.7-4.431h1.939a1.6,1.6,0,0,1,1.121.431,1.425,1.425,0,0,1-.015,2.124,1.58,1.58,0,0,1-1.107.438H874.21Zm4.4,7.726a1.946,1.946,0,0,1-1.416.579H874.21v-3.965h2.982a1.945,1.945,0,0,1,1.414.577,1.9,1.9,0,0,1,.584,1.394A1.926,1.926,0,0,1,878.608,274.042Z" transform="translate(-795.49 -261.713)" fill="#6d6f71"/>
          <path id="Trazado_104" data-name="Trazado 104" d="M892.893,273.291l.025.066.95,2.6,1.446,0-4-10.955h-1.372l-4.016,10.955,1.43,0,.977-2.667Zm-4.017-1.479,1.751-4.825,1.812,4.961h-3.612Z" transform="translate(-800.247 -261.713)" fill="#6d6f71"/>
        </g>
      </g>
      <g id="Grupo_17" data-name="Grupo 17">
        <g id="Grupo_15" data-name="Grupo 15" transform="translate(192.227)">
          <path id="Trazado_105" data-name="Trazado 105" d="M844.655,233.6a5.114,5.114,0,0,0-3.78-1.6l-3.893.008.024,10.961,3.893-.008a5.1,5.1,0,0,0,3.773-1.626,5.407,5.407,0,0,0,1.562-3.89A5.316,5.316,0,0,0,844.655,233.6Zm-.878,6.8a3.931,3.931,0,0,1-2.881,1.223l-2.474.005-.018-8.336,2.474-.005a3.911,3.911,0,0,1,2.887,1.227,4.216,4.216,0,0,1,.012,5.886Z" transform="translate(-836.982 -231.554)" fill="#6d6f71"/>
          <path id="Trazado_106" data-name="Trazado 106" d="M858.779,237.61l0-1.337-3.947.008-.006-3,5.431-.012,0-1.312-6.852.015.023,10.961,7.116-.015,0-1.342-5.7.012-.008-3.968Z" transform="translate(-842.927 -231.537)" fill="#6d6f71"/>
          <path id="Trazado_107" data-name="Trazado 107" d="M881.773,240.23c-.628.47-1.067.776-1.267.889a5.676,5.676,0,0,1-2.671.534,4.505,4.505,0,0,1-3.2-1.264,4.177,4.177,0,0,1-.022-6.116A4.5,4.5,0,0,1,877.816,233a6.772,6.772,0,0,1,2.379.362,8.548,8.548,0,0,1,1.565.9l0-1.541a10.664,10.664,0,0,0-1.773-.768,7.106,7.106,0,0,0-2.17-.322,5.8,5.8,0,0,0-4.187,1.686,5.563,5.563,0,0,0,.026,8.047,5.817,5.817,0,0,0,4.185,1.664,8.151,8.151,0,0,0,2.109-.252,7.19,7.19,0,0,0,1.83-.82Z" transform="translate(-849.632 -231.419)" fill="#6d6f71"/>
          <rect id="Rectángulo_15" data-name="Rectángulo 15" width="1.418" height="10.96" transform="translate(33.188 0.385) rotate(-0.123)" fill="#6d6f71"/>
          <path id="Trazado_108" data-name="Trazado 108" d="M898.813,237.524l0-1.337-3.949.008-.006-3,5.433-.012,0-1.312-6.854.015.023,10.961,7.117-.015,0-1.342-5.7.012-.009-3.968Z" transform="translate(-857.421 -231.506)" fill="#6d6f71"/>
          <path id="Trazado_109" data-name="Trazado 109" d="M916.31,242.793l-.023-10.961-1.406,0,.019,8.784-6.869-8.77-1.535,0,.023,10.961,1.422,0-.019-8.771,6.86,8.764Z" transform="translate(-862.152 -231.492)" fill="#6d6f71"/>
          <path id="Trazado_110" data-name="Trazado 110" d="M933.718,240.118a14.449,14.449,0,0,1-1.267.89,5.648,5.648,0,0,1-2.667.534,4.52,4.52,0,0,1-3.209-1.264,4.186,4.186,0,0,1-.017-6.117,4.5,4.5,0,0,1,3.207-1.27,6.7,6.7,0,0,1,2.371.361,8.061,8.061,0,0,1,1.568.9l0-1.541a11,11,0,0,0-1.77-.769,7.1,7.1,0,0,0-2.17-.321,5.793,5.793,0,0,0-4.187,1.685,5.563,5.563,0,0,0,.022,8.047,5.827,5.827,0,0,0,4.189,1.664,8.226,8.226,0,0,0,2.113-.251,7.031,7.031,0,0,0,1.822-.82Z" transform="translate(-868.441 -231.379)" fill="#6d6f71"/>
          <rect id="Rectángulo_16" data-name="Rectángulo 16" width="1.42" height="10.96" transform="translate(66.322 0.314) rotate(-0.123)" fill="#6d6f71"/>
          <path id="Trazado_111" data-name="Trazado 111" d="M951.738,240.053l.977,2.667,1.446,0-4.025-10.952-1.372,0-3.992,10.969,1.434,0,.968-2.672Zm-2.284-6.3,1.823,4.957-3.611.008Z" transform="translate(-876.011 -231.468)" fill="#6d6f71"/>
          <path id="Trazado_112" data-name="Trazado 112" d="M966.58,237.331a3.544,3.544,0,0,0-1.728-1.263l-1.652-.556a1.619,1.619,0,0,1-.72-.511,1.3,1.3,0,0,1-.272-.832,1.231,1.231,0,0,1,.463-1.026,1.8,1.8,0,0,1,1.132-.36,1.739,1.739,0,0,1,.9.231,1.406,1.406,0,0,1,.526.549l1.2-.823a2.961,2.961,0,0,0-1.058-1.042,3.305,3.305,0,0,0-3.744.415,2.665,2.665,0,0,0-.877,2.059,2.627,2.627,0,0,0,.538,1.637,3.206,3.206,0,0,0,1.434,1.057c.277.116.549.22.848.325.243.082.545.186.9.31a2.107,2.107,0,0,1,.928.746,1.989,1.989,0,0,1,.352,1.143,1.748,1.748,0,0,1-.626,1.406,2.3,2.3,0,0,1-1.527.528,2.2,2.2,0,0,1-1.507-.561,1.832,1.832,0,0,1-.626-1.238l-1.315.9a3.42,3.42,0,0,0,1.275,1.717,3.65,3.65,0,0,0,2.184.691,3.717,3.717,0,0,0,2.594-.982,3.246,3.246,0,0,0,1.042-2.466A3.4,3.4,0,0,0,966.58,237.331Z" transform="translate(-881.577 -231.3)" fill="#6d6f71"/>
        </g>
        <rect id="Rectángulo_17" data-name="Rectángulo 17" width="1.422" height="10.963" transform="translate(0 0.643)" fill="#6d6f71"/>
        <path id="Trazado_113" data-name="Trazado 113" d="M549.864,243.265V232.3h-1.4v8.781l-.184-.232-6.662-8.549h-1.535v10.963H541.5v-8.773l6.846,8.777Z" transform="translate(-537.253 -231.663)" fill="#6d6f71"/>
        <path id="Trazado_114" data-name="Trazado 114" d="M563.773,237.455a3.478,3.478,0,0,0-1.722-1.267l-1.655-.559a1.622,1.622,0,0,1-.721-.512,1.319,1.319,0,0,1-.269-.834,1.223,1.223,0,0,1,.468-1.021,1.758,1.758,0,0,1,1.131-.362,1.739,1.739,0,0,1,.9.234,1.4,1.4,0,0,1,.524.546l1.2-.82a2.99,2.99,0,0,0-1.057-1.044,3.127,3.127,0,0,0-1.574-.4,3.09,3.09,0,0,0-2.168.808,2.808,2.808,0,0,0-.347,3.7,3.119,3.119,0,0,0,1.43,1.058c.309.131.591.241.846.33s.544.186.9.306a2.2,2.2,0,0,1,.924.75,2,2,0,0,1,.348,1.148,1.745,1.745,0,0,1-.631,1.4,2.282,2.282,0,0,1-1.522.523,2.182,2.182,0,0,1-1.509-.565,1.832,1.832,0,0,1-.625-1.235l-1.318.9a3.414,3.414,0,0,0,1.278,1.717,3.645,3.645,0,0,0,2.177.695,3.7,3.7,0,0,0,2.6-.975,3.23,3.23,0,0,0,1.053-2.461A3.4,3.4,0,0,0,563.773,237.455Z" transform="translate(-543.499 -231.343)" fill="#6d6f71"/>
        <path id="Trazado_115" data-name="Trazado 115" d="M578.463,232.308h-8.429v1.315h3.559v9.648h1.418v-9.648h3.451Z" transform="translate(-548.099 -231.665)" fill="#6d6f71"/>
        <rect id="Rectángulo_18" data-name="Rectángulo 18" width="1.418" height="10.963" transform="translate(31.75 0.643)" fill="#6d6f71"/>
        <path id="Trazado_116" data-name="Trazado 116" d="M598.281,232.308H589.85v1.315h3.557v9.648h1.424v-9.648h3.449Z" transform="translate(-555.273 -231.665)" fill="#6d6f71"/>
        <path id="Trazado_117" data-name="Trazado 117" d="M615.1,231.919H613.68v6.752a2.911,2.911,0,0,1-.94,2.258,3.821,3.821,0,0,1-4.828,0,2.992,2.992,0,0,1-.928-2.286v-6.72h-1.421v6.752a4.181,4.181,0,0,0,1.34,3.22,5.358,5.358,0,0,0,6.863-.006,4.217,4.217,0,0,0,1.333-3.228Z" transform="translate(-560.962 -231.524)" fill="#6d6f71"/>
        <path id="Trazado_118" data-name="Trazado 118" d="M631.489,232.308h-8.429v1.315h3.555v9.648h1.422v-9.648h3.451Z" transform="translate(-567.298 -231.665)" fill="#6d6f71"/>
        <path id="Trazado_119" data-name="Trazado 119" d="M647.79,233.473a5.647,5.647,0,1,0,1.648,3.995A5.434,5.434,0,0,0,647.79,233.473Zm-.934,7.029a4.205,4.205,0,0,1-3.041,1.25,4.284,4.284,0,1,1,3.041-1.25Z" transform="translate(-572.78 -231.489)" fill="#6d6f71"/>
        <g id="Grupo_16" data-name="Grupo 16" transform="translate(81.854 0.075)">
          <path id="Trazado_120" data-name="Trazado 120" d="M673.5,231.855h-1.422v6.752a2.914,2.914,0,0,1-.94,2.258,3.821,3.821,0,0,1-4.828,0,2.99,2.99,0,0,1-.924-2.286v-6.72h-1.424v6.752a4.185,4.185,0,0,0,1.342,3.22,5.361,5.361,0,0,0,6.864-.006,4.238,4.238,0,0,0,1.333-3.228Z" transform="translate(-663.962 -231.576)" fill="#6d6f71"/>
          <path id="Trazado_121" data-name="Trazado 121" d="M689.72,242.822l1.524-.008v-10.96h-1.4v8.781l-.182-.232-6.663-8.549H681.46v10.96h1.418v-8.769l.182.231Z" transform="translate(-670.297 -231.576)" fill="#6d6f71"/>
          <rect id="Rectángulo_19" data-name="Rectángulo 19" width="1.42" height="10.96" transform="translate(22.446 0.279)" fill="#6d6f71"/>
          <path id="Trazado_122" data-name="Trazado 122" d="M710.865,231.85l-3.229,8.936-3.252-8.936-1.446,0,4.013,10.96h1.371l3.992-10.96Z" transform="translate(-678.075 -231.574)" fill="#6d6f71"/>
          <path id="Trazado_123" data-name="Trazado 123" d="M725.146,237.509v-1.342h-3.953v-3h5.435v-1.315h-6.854v10.96h7.12v-1.342h-5.7v-3.964Z" transform="translate(-684.171 -231.576)" fill="#6d6f71"/>
          <path id="Trazado_124" data-name="Trazado 124" d="M735.882,238.043l3.2,4.767,1.759,0-3.414-5.043.107-.05a3.087,3.087,0,0,0,1.33-1.128,2.977,2.977,0,0,0,.49-1.667,2.945,2.945,0,0,0-.91-2.173,3,3,0,0,0-2.175-.9h-3.424v10.959h1.417V238l1.589,0Zm-1.617-4.779h2.007a1.688,1.688,0,0,1,1.692,1.708,1.7,1.7,0,0,1-1.692,1.692h-2.007Z" transform="translate(-688.904 -231.576)" fill="#6d6f71"/>
          <path id="Trazado_125" data-name="Trazado 125" d="M753.752,237.455a3.5,3.5,0,0,0-1.726-1.267l-1.651-.559a1.584,1.584,0,0,1-.72-.512,1.311,1.311,0,0,1-.274-.834,1.23,1.23,0,0,1,.47-1.021,1.773,1.773,0,0,1,1.129-.362,1.734,1.734,0,0,1,.9.234,1.387,1.387,0,0,1,.526.546l1.2-.817a2.956,2.956,0,0,0-1.056-1.047,3.324,3.324,0,0,0-3.748.411,2.824,2.824,0,0,0-.343,3.7,3.2,3.2,0,0,0,1.432,1.058c.281.122.57.231.852.33.163.053.357.122.579.2l.315.108a2.236,2.236,0,0,1,.926.75,2.015,2.015,0,0,1,.345,1.146,1.761,1.761,0,0,1-.628,1.4,2.3,2.3,0,0,1-1.527.523,2.174,2.174,0,0,1-1.5-.565,1.818,1.818,0,0,1-.627-1.235l-1.315.9a3.394,3.394,0,0,0,1.271,1.717,3.659,3.659,0,0,0,2.182.695,3.7,3.7,0,0,0,2.593-.975,3.243,3.243,0,0,0,1.053-2.463A3.442,3.442,0,0,0,753.752,237.455Z" transform="translate(-694.141 -231.418)" fill="#6d6f71"/>
          <rect id="Rectángulo_20" data-name="Rectángulo 20" width="1.418" height="10.96" transform="translate(61.268 0.279)" fill="#6d6f71"/>
          <path id="Trazado_126" data-name="Trazado 126" d="M772.87,231.855h-8.431v1.315h3.556v9.645h1.422V233.17h3.453Z" transform="translate(-700.343 -231.576)" fill="#6d6f71"/>
          <path id="Trazado_127" data-name="Trazado 127" d="M782.334,240.147l.025.067.95,2.6h1.447l-4-10.958h-1.37l-4.015,10.958H776.8l.975-2.666Zm-4.017-1.479,1.749-4.83,1.812,4.968h-3.612Z" transform="translate(-704.3 -231.576)" fill="#6d6f71"/>
          <path id="Trazado_128" data-name="Trazado 128" d="M793.754,238.043l3.2,4.767,1.759,0-3.41-5.043.108-.05a3.063,3.063,0,0,0,1.323-1.128,3.062,3.062,0,0,0-.416-3.84,3.007,3.007,0,0,0-2.175-.9h-3.43v10.959h1.423V238l1.587,0Zm-1.619-4.779h2.007a1.638,1.638,0,0,1,1.193.492,1.667,1.667,0,0,1,.5,1.215,1.7,1.7,0,0,1-1.694,1.692h-2.007Z" transform="translate(-709.856 -231.576)" fill="#6d6f71"/>
          <rect id="Rectángulo_21" data-name="Rectángulo 21" width="1.42" height="10.96" transform="translate(90.364 0.279)" fill="#6d6f71"/>
          <path id="Trazado_129" data-name="Trazado 129" d="M819.393,233.311a5.643,5.643,0,1,0,1.649,3.995A5.45,5.45,0,0,0,819.393,233.311Zm-.944,7.03a4.3,4.3,0,1,1,1.263-3.035A4.176,4.176,0,0,1,818.449,240.341Z" transform="translate(-716.767 -231.506)" fill="#6d6f71"/>
        </g>
      </g>
    </g>
    <g id="Grupo_19" data-name="Grupo 19" transform="translate(70.418 99.254)">
      <path id="Trazado_130" data-name="Trazado 130" d="M213.127,141.078h-.019c-.066,0-6.639-.3-9.361-.3-2.031,0-5.833.055-7.684.085v.011l-1.077.006-1.07.018V140.9c-15.916.209-30.789,2.958-41.982,7.772-5.508,2.369-9.816,5.106-12.8,8.133s-4.508,6.214-4.508,9.463c0,3.465,1.708,6.835,5.077,10.017l.068.064c11.065-6.71,29.186-11.09,49.673-11.09h6.017c24.629,0,45.9,6.169,55.833,15.087l.008-.009.549.522.066.062h0l.165.156c3.806,3.624,5.736,7.516,5.736,11.57,0,7.453-6.6,14.4-18.593,19.563-11.69,5.033-27.264,7.86-43.853,7.961-.019,0-.541.007-1.472.007-2.911,0-9.818-.066-17.847-.607-10.334-.693-20.658-2.434-21.285-2.54-23.035-2.737-44.168-8.728-59.508-16.872-12.72-6.753-21.124-14.789-24.836-23.63v15.628c0,28.39,55.6,51.4,124.181,51.4,47.877,0,89.419-11.224,110.141-27.657q2.076-1.647,3.869-3.361c6.357-6.59,9.575-13.617,9.575-20.922C318.184,161.83,264.769,142.53,213.127,141.078Z" transform="translate(-70.418 -114.29)" fill="#00a8d4"/>
      <path id="Trazado_131" data-name="Trazado 131" d="M155.046,199.867l.057.008c.1.018,10.6,1.816,21.09,2.519s19.066.6,19.151.6c16.314-.1,31.588-2.865,43.017-7.785,5.5-2.369,9.805-5.1,12.791-8.132s4.5-6.215,4.5-9.465c0-3.447-1.706-6.819-5.071-10.024l-.529-.5c-11.06,6.743-29.223,11.14-49.749,11.14h-6.016c-25.161,0-46.816-6.43-56.46-15.665l.077-.052c-3.613-3.519-5.444-7.312-5.444-11.276,0-7.452,6.61-14.4,18.613-19.562,11.7-5.034,27.29-7.861,43.891-7.961.17,0,6.053-.1,8.783-.1,2.746,0,9.072.281,9.451.3,26.153.736,52.457,6.051,72.167,14.583,10.748,4.652,19.2,10.093,25.118,16.169a35.382,35.382,0,0,1,8.281,12.782V150.657c0-28.387-55.591-51.4-124.165-51.4-59.09,0-108.534,17.086-121.086,39.971a23.567,23.567,0,0,0-3.1,11.432v1.159C71.449,178.184,113.432,194.929,155.046,199.867Z" transform="translate(-70.418 -99.254)" fill="#6d6f71"/>
    </g>
  </g>
</svg>
